<?xml version="1.0" encoding="UTF-8"?>
<svg xmlns="http://www.w3.org/2000/svg" xmlns:xlink="http://www.w3.org/1999/xlink" width="100pt" height="100pt" viewBox="0 0 100 100" version="1.1">
<g id="surface1">
<path style=" stroke:none;fill-rule:nonzero;fill:rgb(93.72549%,61.568627%,72.941176%);fill-opacity:1;" d="M 63.558594 58.851562 C 63.625 59.265625 62.988281 59.71875 62.121094 59.867188 C 61.253906 60.011719 60.507812 59.785156 60.425781 59.375 C 60.359375 58.960938 61 58.507812 61.867188 58.359375 C 62.734375 58.214844 63.492188 58.425781 63.558594 58.851562 Z M 49.308594 57.761719 C 48.546875 57.558594 47.839844 57.679688 47.746094 58.054688 C 47.652344 58.425781 48.1875 58.878906 48.945312 59.09375 C 49.707031 59.292969 50.414062 59.171875 50.507812 58.800781 C 50.601562 58.425781 50.066406 57.960938 49.308594 57.761719 Z M 49.308594 57.761719 "/>
<path style=" stroke:none;fill-rule:nonzero;fill:rgb(73.333333%,87.058824%,69.803922%);fill-opacity:1;" d="M 52.734375 67.691406 C 53.132812 66.988281 53.480469 66.238281 53.734375 65.441406 C 54.132812 65.546875 54.535156 65.640625 54.945312 65.707031 C 55.039062 66.160156 55.253906 66.613281 55.625 66.894531 C 56.265625 67.398438 57.132812 67.121094 57.839844 66.558594 C 57.988281 66.441406 58.199219 66.546875 58.1875 66.734375 C 58.171875 67.667969 58.199219 68.480469 58.265625 69.226562 C 56.652344 69.066406 54.867188 68.574219 52.734375 67.691406 Z M 52.734375 67.691406 "/>
<path style=" stroke:none;fill-rule:nonzero;fill:rgb(69.803922%,55.294118%,43.921569%);fill-opacity:1;" d="M 70.464844 54.347656 C 69.800781 53.921875 68.933594 53.839844 68.121094 54.121094 C 67.359375 54.386719 66.785156 54.945312 66.558594 55.640625 C 66.464844 55.921875 66.613281 56.214844 66.894531 56.308594 C 67.171875 56.398438 67.464844 56.253906 67.558594 55.972656 C 67.691406 55.585938 68.011719 55.28125 68.464844 55.121094 C 68.960938 54.945312 69.507812 54.988281 69.878906 55.238281 C 70.679688 55.746094 70.933594 57 70.414062 57.867188 C 69.878906 58.746094 68.1875 59.707031 67.1875 59.464844 C 66.988281 59.414062 66.773438 59.492188 66.652344 59.652344 C 63.761719 63.332031 58.574219 65.039062 54.066406 63.800781 C 51.039062 62.972656 48.398438 60.90625 47 58.28125 C 46.492188 57.332031 46.148438 56.292969 46.011719 55.226562 C 45.945312 54.71875 45.933594 54.199219 45.960938 53.679688 C 45.972656 53.425781 46 53.160156 46.039062 52.90625 C 46.066406 52.71875 46.160156 52.441406 46.121094 52.265625 C 46.054688 51.933594 45.039062 52.414062 45.011719 52.625 C 44.652344 54.707031 45 56.8125 46.054688 58.785156 C 47.585938 61.667969 50.464844 63.921875 53.773438 64.828125 C 54.839844 65.121094 55.945312 65.265625 57.066406 65.265625 C 57.585938 65.265625 58.105469 65.238281 58.625 65.171875 C 58.652344 65.613281 58.691406 66.308594 58.71875 66.90625 C 58.761719 67.691406 58.800781 68.375 58.828125 68.625 C 59.1875 71.746094 59.933594 74.878906 61.066406 77.921875 L 61.199219 78.28125 C 61.785156 79.867188 62.398438 81.507812 63.480469 82.894531 C 64.078125 83.640625 65.625 85.332031 67.546875 85.332031 C 67.625 85.332031 67.71875 85.332031 67.800781 85.320312 C 68.828125 85.238281 69.292969 84.761719 69.492188 84.386719 C 70 83.414062 69.414062 82.121094 69.011719 81.453125 C 66.558594 77.265625 64.625 71.90625 62.933594 67.160156 C 62.585938 66.1875 62.253906 65.253906 61.921875 64.359375 C 63.988281 63.558594 65.867188 62.265625 67.28125 60.574219 C 68.71875 60.679688 70.640625 59.574219 71.320312 58.441406 C 72.132812 57.066406 71.734375 55.160156 70.464844 54.347656 Z M 61.945312 67.492188 C 63.652344 72.265625 65.601562 77.691406 68.105469 81.960938 C 68.574219 82.761719 68.761719 83.507812 68.558594 83.878906 C 68.453125 84.09375 68.171875 84.226562 67.71875 84.253906 C 66.148438 84.359375 64.707031 82.71875 64.308594 82.214844 C 63.320312 80.972656 62.746094 79.398438 62.1875 77.894531 L 62.054688 77.535156 C 60.945312 74.558594 60.214844 71.519531 59.867188 68.492188 C 59.839844 68.265625 59.800781 67.546875 59.773438 66.839844 C 59.734375 66.011719 59.691406 65.386719 59.667969 65 C 60.09375 64.921875 60.507812 64.8125 60.921875 64.691406 C 61.253906 65.574219 61.601562 66.519531 61.945312 67.492188 Z M 48.972656 83.414062 L 39.1875 83.132812 C 36.828125 83.066406 34.148438 82.988281 31.839844 81.800781 C 31 81.359375 30.414062 80.867188 30.039062 80.265625 C 29.535156 79.453125 29.464844 78.464844 29.878906 77.71875 C 29.988281 77.535156 30.105469 77.375 30.238281 77.238281 C 29.972656 77 29.90625 76.878906 29.707031 76.480469 C 29.359375 75.800781 29.425781 75.027344 29.894531 74.535156 C 30.507812 73.878906 31.519531 73.851562 32.425781 73.921875 C 34.613281 74.066406 36.785156 74.078125 38.894531 74.09375 C 40.679688 74.105469 42.519531 74.121094 44.375 74.214844 C 44.691406 74.558594 45 74.933594 45.308594 75.320312 C 43.132812 75.171875 40.972656 75.160156 38.878906 75.148438 C 36.761719 75.132812 34.558594 75.121094 32.347656 74.972656 C 32.214844 74.960938 32.027344 74.945312 31.828125 74.945312 C 31.773438 75.453125 31.851562 75.960938 32.066406 76.425781 C 32.425781 76.375 32.785156 76.332031 33.132812 76.320312 C 35.464844 76.214844 37.839844 76.214844 40.132812 76.199219 C 42.027344 76.199219 43.960938 76.171875 45.878906 76.121094 C 46.105469 76.453125 46.332031 76.800781 46.546875 77.160156 C 44.398438 77.238281 42.226562 77.253906 40.132812 77.253906 C 37.851562 77.253906 35.492188 77.265625 33.1875 77.359375 C 32.71875 77.386719 32.226562 77.425781 31.8125 77.546875 C 31.8125 78.800781 32.347656 80.171875 33.132812 81.226562 C 35.054688 81.960938 37.238281 82.027344 39.199219 82.078125 L 48.761719 82.347656 C 48.867188 82.71875 48.921875 83.066406 48.972656 83.414062 Z M 55.574219 62.585938 C 54.878906 62.585938 54.1875 62.453125 53.546875 62.1875 C 53.332031 62.09375 53.226562 61.851562 53.320312 61.640625 C 53.414062 61.425781 53.652344 61.320312 53.867188 61.414062 C 54.574219 61.707031 55.347656 61.800781 56.105469 61.71875 C 56.347656 61.691406 56.546875 61.851562 56.574219 62.09375 C 56.601562 62.320312 56.441406 62.535156 56.199219 62.558594 C 55.988281 62.574219 55.773438 62.585938 55.574219 62.585938 Z M 59.453125 58.347656 C 58.933594 58.265625 58.425781 57.988281 58.09375 57.574219 C 57.945312 57.386719 57.972656 57.121094 58.160156 56.972656 C 58.347656 56.828125 58.613281 56.851562 58.761719 57.039062 C 58.988281 57.320312 59.332031 57.507812 59.691406 57.519531 C 60.054688 57.535156 60.414062 57.398438 60.667969 57.132812 C 60.828125 56.960938 61.09375 56.960938 61.265625 57.132812 C 61.425781 57.292969 61.441406 57.558594 61.265625 57.734375 C 60.851562 58.160156 60.238281 58.398438 59.640625 58.375 C 59.585938 58.359375 59.519531 58.359375 59.453125 58.347656 Z M 51.28125 57.652344 C 51.214844 57.652344 51.148438 57.652344 51.078125 57.640625 C 50.464844 57.585938 49.867188 57.265625 49.507812 56.785156 C 49.359375 56.601562 49.398438 56.332031 49.585938 56.199219 C 49.773438 56.054688 50.039062 56.09375 50.171875 56.28125 C 50.398438 56.574219 50.773438 56.773438 51.160156 56.8125 C 51.546875 56.851562 51.960938 56.71875 52.238281 56.464844 C 52.414062 56.308594 52.679688 56.332031 52.839844 56.507812 C 53 56.679688 52.972656 56.945312 52.800781 57.105469 C 52.386719 57.453125 51.828125 57.652344 51.28125 57.652344 Z M 51.28125 57.652344 "/>
<path style=" stroke:none;fill-rule:nonzero;fill:rgb(64.705882%,76.470588%,87.843137%);fill-opacity:1;" d="M 70.132812 85.132812 C 70.292969 84.960938 70.585938 85.078125 70.585938 85.320312 C 70.546875 86.761719 69.746094 87.878906 69.226562 88.464844 C 67.375 90.613281 63.214844 90.519531 60.640625 89.09375 C 60.375 88.945312 60.011719 89.039062 59.867188 89.398438 C 59.734375 91.359375 58.308594 93.171875 56.441406 93.773438 C 54.679688 94.347656 52.625 93.8125 51.332031 92.492188 C 51.398438 92.386719 51.453125 92.28125 51.492188 92.171875 C 52.011719 91.027344 51.734375 89.652344 50.851562 88.921875 C 50.347656 88.507812 49.640625 88.332031 48.960938 88.480469 C 48.238281 88.625 47.667969 89.105469 47.464844 89.761719 C 47.667969 90.398438 48.308594 90.375 48.519531 89.972656 C 48.640625 89.746094 48.878906 89.585938 49.171875 89.519531 C 49.535156 89.441406 49.933594 89.535156 50.1875 89.746094 C 50.707031 90.171875 50.851562 91.039062 50.535156 91.761719 C 50.238281 92.425781 49.574219 92.988281 48.707031 93.292969 C 47.265625 93.8125 45.546875 93.535156 44.332031 92.585938 C 43.148438 91.652344 42.226562 88.265625 42.574219 87.132812 C 43.773438 86.492188 45.011719 85.414062 45.894531 84.292969 C 46.601562 84.332031 47.253906 84.253906 47.945312 84.386719 C 48.761719 84.546875 51.90625 86.132812 54.011719 87.359375 C 54.464844 87.625 55.039062 87.613281 55.480469 87.347656 C 57.425781 86.148438 58.238281 85.425781 62.734375 84.148438 C 63.574219 85.105469 65.398438 86.121094 66.746094 86.226562 C 68.625 86.332031 69.640625 85.652344 70.132812 85.132812 Z M 70.132812 85.132812 "/>
<path style=" stroke:none;fill-rule:nonzero;fill:rgb(78.431373%,84.313725%,91.372549%);fill-opacity:1;" d="M 45.160156 84.105469 C 43.253906 86.171875 41.585938 87.320312 39.347656 87.398438 C 38.921875 88 36.921875 88.839844 36.1875 88.746094 C 35.535156 88.667969 34.773438 87.933594 34.464844 87.320312 C 34.359375 87.105469 34.132812 86.988281 33.894531 87.027344 C 33.652344 87.066406 33.480469 87.265625 33.464844 87.507812 C 33.398438 88.253906 33 88.972656 32.375 89.507812 C 31.734375 90.039062 30.945312 90.292969 30.214844 90.226562 C 29.480469 90.148438 28.746094 89.734375 28.238281 89.09375 C 27.785156 88.535156 27.546875 87.851562 27.546875 87.1875 C 27.960938 86.988281 28.320312 86.691406 28.585938 86.347656 C 29.171875 85.574219 29.238281 84.519531 28.761719 83.761719 C 28.320312 83.066406 27.398438 82.71875 26.625 82.972656 C 26.347656 83.066406 26.199219 83.359375 26.28125 83.640625 C 26.375 83.921875 26.667969 84.066406 26.945312 83.988281 C 27.265625 83.894531 27.691406 84.039062 27.878906 84.332031 C 28.121094 84.71875 28.066406 85.292969 27.746094 85.707031 C 27.441406 86.105469 26.90625 86.386719 26.28125 86.464844 C 24.8125 86.667969 23.265625 85.585938 22.90625 84.148438 C 22.535156 82.613281 23.480469 80.707031 24.828125 80.28125 C 25.054688 80.214844 25.171875 79.972656 25.121094 79.761719 C 24.613281 77.785156 24.308594 75.933594 25.894531 73.90625 C 27.171875 72.265625 29.425781 71.214844 31.613281 71.71875 C 31.90625 71.785156 32.214844 71.691406 32.425781 71.492188 C 33.507812 70.480469 34.988281 70.679688 35.933594 70.679688 C 37.347656 70.679688 38.253906 71.535156 39.011719 72.199219 C 39.121094 72.292969 39.265625 72.347656 39.414062 72.332031 C 39.558594 72.320312 39.691406 72.238281 39.785156 72.121094 C 40.761719 70.828125 42.601562 70.214844 44.078125 70.691406 C 45.054688 71 45.800781 71.601562 46.226562 72.375 C 44.667969 73.171875 42.828125 73.507812 41 73.480469 C 37.921875 73.425781 34.238281 73.105469 31.1875 73.386719 C 30.320312 73.464844 29.507812 73.894531 29.039062 74.613281 C 28.359375 75.679688 28.691406 76.613281 29.160156 77.265625 C 28.453125 78.933594 29.558594 81.226562 30.734375 82.027344 C 32.359375 83.132812 34.121094 83.640625 35.761719 83.691406 C 37.988281 83.761719 42.1875 83.988281 45.160156 84.105469 Z M 45.160156 84.105469 "/>
<path style=" stroke:none;fill-rule:nonzero;fill:rgb(93.72549%,64.705882%,76.862745%);fill-opacity:1;" d="M 75.386719 8.894531 C 75.160156 10.519531 73.214844 11.535156 71.773438 11.933594 C 70.839844 12.199219 69.960938 12.160156 69 12.105469 C 68.546875 12.078125 68.09375 12.148438 67.625 12.121094 C 67.066406 12.078125 66.519531 12.039062 65.960938 11.972656 C 64.894531 11.839844 63.828125 11.640625 62.785156 11.375 C 62.535156 11.308594 59.734375 10.453125 59.761719 10.386719 C 60.039062 9.71875 60.292969 9.039062 60.535156 8.332031 C 63.921875 9 67.558594 8.585938 70.667969 7.078125 L 71.027344 6.90625 C 72.199219 6.320312 73.414062 5.71875 74.425781 6.160156 C 75.359375 6.558594 75.535156 7.878906 75.386719 8.894531 Z M 55.746094 17.519531 C 55.492188 17.867188 55.226562 18.214844 54.960938 18.558594 C 54.972656 18.546875 56.425781 20.746094 56.546875 20.960938 C 57 21.828125 57.359375 22.746094 57.625 23.707031 C 58.160156 25.625 58.292969 27.667969 58.027344 29.640625 C 57.921875 30.425781 57.546875 31.265625 57.773438 32.054688 C 58 32.828125 59.066406 33.265625 59.8125 33.160156 C 60.972656 32.972656 61.785156 31.894531 62.078125 30.921875 C 62.375 29.933594 62.347656 28.773438 61.988281 27.253906 C 61.027344 23.105469 58.921875 19.851562 55.746094 17.519531 Z M 52.464844 21.375 C 52.867188 23.171875 53.105469 25.1875 53.132812 27.1875 C 53.148438 29.054688 52.734375 30.921875 51.90625 32.601562 L 51.761719 32.878906 C 51.425781 33.535156 51.121094 34.148438 51.214844 34.734375 C 51.292969 35.1875 51.625 35.453125 51.894531 35.613281 C 52.425781 35.90625 53.105469 35.960938 53.652344 35.746094 C 54.558594 35.386719 55.292969 34.507812 55.90625 33.078125 C 57.894531 28.441406 57.160156 23.160156 54.226562 19.480469 C 53.691406 20.078125 53.105469 20.707031 52.464844 21.375 Z M 72.773438 13.453125 C 72.054688 13.28125 71.308594 13.292969 70.492188 13.308594 L 70.121094 13.320312 C 66.09375 13.386719 62.734375 12.800781 59.308594 11.441406 C 59 12.121094 58.667969 12.785156 58.320312 13.453125 C 60.972656 14.867188 63.546875 15.878906 66.785156 16.785156 C 66.828125 16.800781 66.867188 16.800781 66.90625 16.8125 C 66.921875 16.828125 66.933594 16.828125 66.960938 16.839844 C 67.558594 17 68.171875 17.160156 68.828125 17.320312 C 70.105469 17.640625 71.574219 17.933594 72.851562 17.480469 C 73.507812 17.238281 74.105469 16.707031 74.398438 16.078125 C 74.546875 15.761719 74.679688 15.28125 74.492188 14.773438 C 74.265625 14.160156 73.625 13.667969 72.773438 13.453125 Z M 68.199219 18.574219 C 67.71875 18.386719 67.171875 18.160156 66.585938 17.90625 C 63.226562 16.972656 60.519531 15.90625 57.773438 14.441406 C 57.347656 15.171875 56.90625 15.894531 56.425781 16.585938 C 56.464844 16.535156 58.398438 18.28125 58.558594 18.441406 C 59.226562 19.121094 59.828125 19.867188 60.375 20.640625 C 61.078125 21.667969 61.535156 22.828125 62.132812 23.90625 C 63.691406 26.679688 67.867188 29.761719 71.011719 27.414062 C 72.921875 25.988281 72.960938 22.945312 71.785156 21.121094 C 70.828125 19.613281 69.773438 19.199219 68.199219 18.574219 Z M 68.199219 18.574219 "/>
<path style=" stroke:none;fill-rule:nonzero;fill:rgb(61.568627%,75.294118%,52.54902%);fill-opacity:1;" d="M 62.132812 81.546875 L 61.71875 83.078125 C 59.960938 83.707031 57 84.8125 55.253906 86 C 54.894531 86.253906 54.425781 86.265625 54.039062 86.066406 C 52.761719 85.386719 51.480469 84.773438 50.199219 84.066406 C 49.851562 80.746094 47.828125 76.878906 45.535156 74.386719 C 45.386719 74.226562 45.441406 73.960938 45.640625 73.867188 C 47.800781 72.867188 49.734375 71.519531 51.226562 69.8125 C 53.507812 71.066406 56.066406 71.746094 58.667969 71.800781 C 58.972656 73.214844 59.398438 74.480469 59.839844 76 C 60.308594 77.625 61.066406 79.894531 62.132812 81.546875 Z M 51.441406 8.265625 C 50.28125 8.613281 49.265625 9.308594 48.601562 10.574219 C 47.640625 12.414062 47.839844 14.734375 48.960938 16.453125 C 49.464844 17.226562 50.132812 17.878906 50.613281 18.667969 C 50.878906 19.105469 51.09375 19.613281 51.171875 20.121094 C 51.226562 20.507812 51.691406 20.652344 51.972656 20.375 C 55.375 16.851562 57.933594 12.746094 59.492188 7.972656 C 59.613281 7.585938 59.238281 7.238281 58.867188 7.398438 C 57.585938 7.921875 55.546875 8.121094 54.761719 8.039062 C 53.613281 7.933594 52.464844 7.960938 51.441406 8.265625 Z M 38.066406 35.375 C 38.386719 37.214844 37.894531 39.171875 36.746094 40.640625 C 35.148438 42.691406 32.480469 43.652344 29.894531 43.851562 C 27.308594 44.054688 24.707031 43.585938 22.121094 43.308594 C 19.535156 43.027344 16.933594 43.574219 14.507812 44.507812 C 13.214844 38.988281 14.199219 32.960938 17.171875 28.132812 C 18.546875 25.921875 20.359375 23.90625 22.679688 22.734375 C 25 21.558594 27.878906 21.292969 30.214844 22.441406 C 31.585938 23.105469 32.691406 24.308594 33.292969 25.707031 C 33.691406 26.652344 33.761719 27.453125 33.679688 28.453125 C 27.640625 30.1875 22.078125 33.398438 18.292969 38.292969 C 18.121094 38.519531 18.425781 38.800781 18.625 38.601562 C 22.90625 34.492188 28.320312 31.613281 34.09375 30.09375 C 34.347656 30.398438 34.691406 30.667969 35.148438 30.933594 C 35.652344 31.238281 36.121094 31.707031 36.507812 32.160156 C 37.320312 33.066406 37.867188 34.199219 38.066406 35.375 Z M 47.292969 14.519531 C 42.292969 17.160156 36.761719 23.867188 35.773438 30.105469 C 35.238281 29.785156 35.171875 29.839844 34.828125 29.308594 C 34.585938 28.945312 34.625 28.148438 34.894531 27.320312 C 36.828125 21.480469 40.308594 18.09375 41.28125 17.039062 C 43.308594 14.851562 45.625 13.332031 47.386719 12.386719 C 47.253906 13.148438 47.214844 13.867188 47.292969 14.519531 Z M 34.988281 69.546875 C 33.027344 61.585938 32.132812 53.054688 32.375 44.894531 C 33.078125 44.691406 33.1875 44.707031 33.828125 44.347656 C 33.359375 53 34.214844 61.28125 36.347656 69.640625 C 35.90625 69.558594 35.441406 69.519531 34.988281 69.546875 Z M 34.988281 69.546875 "/>
<path style=" stroke:none;fill-rule:nonzero;fill:rgb(90.588235%,88.627451%,90.588235%);fill-opacity:1;" d="M 82.078125 64.640625 C 81.574219 65.441406 80.828125 66.066406 80.054688 66.625 C 76.558594 69.1875 71.8125 70.960938 67.546875 71.71875 L 66.332031 72.09375 C 65.308594 69.8125 64.507812 67.425781 63.828125 65.039062 C 65.320312 64.105469 66.640625 62.933594 67.746094 61.574219 C 71 60.625 74.441406 60.078125 77.707031 59.945312 C 78.625 59.90625 79.558594 59.90625 80.441406 60.1875 C 81.320312 60.464844 82.132812 61.066406 82.464844 61.921875 C 82.8125 62.800781 82.585938 63.828125 82.078125 64.640625 Z M 76.464844 78.066406 C 74.734375 75.1875 72.09375 73.625 69.027344 72.414062 C 68.171875 72.574219 67.308594 72.734375 66.535156 72.921875 C 67.148438 75.308594 67.988281 77.480469 69.078125 79.601562 C 70.839844 80.535156 72.839844 80.972656 74.921875 80.945312 C 75.625 80.933594 76.453125 80.800781 76.8125 80.1875 C 77.214844 79.535156 76.867188 78.71875 76.464844 78.066406 Z M 76.464844 78.066406 "/>
<path style=" stroke:none;fill-rule:nonzero;fill:rgb(95.686275%,79.607843%,39.215686%);fill-opacity:1;" d="M 83 38.945312 C 83.535156 40.28125 84.601562 41.386719 85.800781 41.988281 C 86.148438 42.160156 86.105469 42.652344 85.746094 42.785156 C 84.558594 43.226562 83.546875 44.039062 82.933594 45.226562 C 82.761719 45.574219 82.253906 45.535156 82.132812 45.160156 C 81.679688 43.839844 80.734375 42.921875 79.535156 42.480469 C 79.171875 42.347656 79.121094 41.851562 79.453125 41.679688 C 80.546875 41.121094 81.585938 40.148438 82.171875 38.921875 C 82.347656 38.558594 82.851562 38.574219 83 38.945312 Z M 73.066406 32.945312 C 72.574219 34.28125 71.441406 35.320312 70.292969 35.785156 C 70.09375 35.867188 70.105469 36.148438 70.320312 36.199219 C 71.601562 36.546875 72.625 37.492188 72.972656 38.945312 C 73.027344 39.160156 73.320312 39.1875 73.398438 38.988281 C 73.933594 37.691406 74.988281 36.851562 76.238281 36.480469 C 76.464844 36.414062 76.464844 36.105469 76.253906 36.027344 C 75.027344 35.519531 73.90625 34.359375 73.492188 32.972656 C 73.425781 32.746094 73.148438 32.734375 73.066406 32.945312 Z M 43.800781 62.933594 C 43.386719 63.921875 42.558594 64.691406 41.691406 65.105469 C 41.492188 65.199219 41.519531 65.492188 41.734375 65.558594 C 42.691406 65.867188 43.464844 66.613281 43.761719 67.707031 C 43.8125 67.90625 44.09375 67.921875 44.171875 67.734375 C 44.613281 66.734375 45.441406 66.066406 46.414062 65.761719 C 46.625 65.691406 46.625 65.414062 46.425781 65.320312 C 45.464844 64.90625 44.601562 64.011719 44.238281 62.933594 C 44.171875 62.71875 43.878906 62.734375 43.800781 62.933594 Z M 38.839844 57.558594 C 38.425781 58.519531 37.625 59.28125 36.785156 59.667969 C 36.585938 59.761719 36.601562 60.066406 36.8125 60.132812 C 37.761719 60.441406 38.519531 61.171875 38.8125 62.238281 C 38.867188 62.441406 39.148438 62.464844 39.238281 62.265625 C 39.679688 61.292969 40.480469 60.640625 41.441406 60.332031 C 41.652344 60.265625 41.667969 59.972656 41.453125 59.878906 C 40.519531 59.464844 39.679688 58.601562 39.308594 57.546875 C 39.226562 57.347656 38.933594 57.347656 38.839844 57.558594 Z M 58.519531 71.09375 C 58.453125 70.734375 58.398438 70.359375 58.347656 69.960938 C 56.585938 69.785156 54.652344 69.253906 52.359375 68.308594 C 52.148438 68.640625 51.921875 68.960938 51.667969 69.265625 C 53.785156 70.398438 56.132812 71.027344 58.519531 71.09375 Z M 44.464844 52.507812 C 43.933594 55.105469 44.652344 58.132812 46.226562 60.320312 C 46.375 60.519531 46.132812 60.761719 45.933594 60.625 C 44.988281 59.960938 44.121094 59.171875 43.585938 58.414062 C 40.878906 54.601562 40.441406 48.625 42.558594 44.640625 C 44.199219 41.558594 48.214844 38.171875 51.8125 39.945312 C 50.746094 41.667969 50.1875 43.707031 50.238281 45.851562 C 49.238281 47.945312 47.320312 50.507812 45.148438 51.601562 C 44.785156 51.773438 44.546875 52.121094 44.464844 52.507812 Z M 73.761719 47.851562 C 71.8125 46.441406 70.347656 44.480469 68.667969 42.761719 C 66.8125 40.851562 64.625 39.214844 62.105469 38.347656 C 59.492188 37.441406 56.078125 37.238281 53.613281 38.773438 C 51.441406 40.132812 50.734375 43.839844 50.867188 46.1875 C 53.121094 52.386719 59.960938 55.121094 66.078125 55.691406 C 66.398438 54.28125 68.054688 53.308594 69.480469 53.507812 C 70.773438 53.679688 71.933594 54.800781 72.160156 56.132812 C 72.425781 57.785156 71.894531 59.09375 70.535156 60.105469 C 70.425781 60.1875 70.507812 60.359375 70.640625 60.332031 C 72.292969 59.945312 74.492188 59.386719 75.988281 59.425781 C 78.160156 57.171875 79.921875 53.613281 80.398438 50.375 C 80.480469 49.785156 79.972656 49.28125 79.386719 49.386719 C 77.480469 49.761719 75.386719 49.027344 73.761719 47.851562 Z M 73.761719 47.851562 "/>
</g>
</svg>
