<?xml version="1.0" encoding="UTF-8"?>
<svg xmlns="http://www.w3.org/2000/svg" xmlns:xlink="http://www.w3.org/1999/xlink" width="100pt" height="100pt" viewBox="0 0 100 100" version="1.1">
<g id="surface1">
<path style=" stroke:none;fill-rule:nonzero;fill:rgb(93.72549%,61.568627%,72.941176%);fill-opacity:1;" d="M 63.558594 58.851562 C 63.628906 59.265625 62.988281 59.722656 62.117188 59.867188 C 61.253906 60.015625 60.507812 59.785156 60.425781 59.375 C 60.359375 58.960938 61 58.507812 61.867188 58.359375 C 62.734375 58.210938 63.492188 58.429688 63.558594 58.851562 Z M 49.304688 57.757812 C 48.546875 57.558594 47.84375 57.679688 47.75 58.050781 C 47.652344 58.429688 48.1875 58.882812 48.945312 59.09375 C 49.707031 59.292969 50.414062 59.175781 50.507812 58.796875 C 50.601562 58.429688 50.070312 57.960938 49.304688 57.757812 Z M 49.304688 57.757812 "/>
<path style=" stroke:none;fill-rule:nonzero;fill:rgb(73.333333%,87.058824%,69.803922%);fill-opacity:1;" d="M 52.734375 67.695312 C 53.132812 66.988281 53.480469 66.242188 53.734375 65.4375 C 54.136719 65.546875 54.53125 65.640625 54.945312 65.707031 C 55.039062 66.164062 55.253906 66.609375 55.625 66.894531 C 56.265625 67.402344 57.132812 67.117188 57.84375 66.558594 C 57.988281 66.441406 58.199219 66.546875 58.1875 66.734375 C 58.171875 67.664062 58.199219 68.480469 58.265625 69.226562 C 56.65625 69.066406 54.867188 68.574219 52.734375 67.695312 Z M 52.734375 67.695312 "/>
<path style=" stroke:none;fill-rule:nonzero;fill:rgb(69.803922%,55.294118%,43.921569%);fill-opacity:1;" d="M 70.46875 54.34375 C 69.800781 53.921875 68.9375 53.835938 68.121094 54.121094 C 67.359375 54.382812 66.789062 54.945312 66.558594 55.640625 C 66.464844 55.917969 66.609375 56.210938 66.894531 56.308594 C 67.171875 56.402344 67.464844 56.253906 67.558594 55.972656 C 67.695312 55.585938 68.011719 55.277344 68.46875 55.121094 C 68.960938 54.945312 69.507812 54.984375 69.878906 55.238281 C 70.679688 55.746094 70.933594 57 70.414062 57.867188 C 69.878906 58.746094 68.1875 59.707031 67.1875 59.46875 C 66.988281 59.414062 66.773438 59.492188 66.65625 59.652344 C 63.757812 63.335938 58.574219 65.039062 54.066406 63.796875 C 51.039062 62.972656 48.398438 60.90625 47 58.28125 C 46.492188 57.335938 46.148438 56.292969 46.015625 55.226562 C 45.945312 54.722656 45.933594 54.199219 45.960938 53.679688 C 45.972656 53.429688 46 53.160156 46.039062 52.90625 C 46.0625 52.71875 46.164062 52.441406 46.117188 52.265625 C 46.054688 51.933594 45.039062 52.414062 45.015625 52.625 C 44.652344 54.707031 45 56.8125 46.054688 58.789062 C 47.585938 61.664062 50.46875 63.921875 53.773438 64.828125 C 54.839844 65.121094 55.945312 65.269531 57.066406 65.269531 C 57.585938 65.269531 58.105469 65.238281 58.628906 65.171875 C 58.652344 65.617188 58.691406 66.308594 58.71875 66.90625 C 58.757812 67.695312 58.796875 68.375 58.828125 68.628906 C 59.183594 71.75 59.929688 74.878906 61.0625 77.921875 L 61.203125 78.28125 C 61.789062 79.867188 62.402344 81.507812 63.480469 82.894531 C 64.082031 83.636719 65.625 85.332031 67.546875 85.332031 C 67.625 85.332031 67.71875 85.332031 67.796875 85.320312 C 68.828125 85.238281 69.292969 84.761719 69.492188 84.382812 C 70 83.414062 69.414062 82.117188 69.015625 81.453125 C 66.558594 77.265625 64.628906 71.90625 62.933594 67.15625 C 62.585938 66.1875 62.25 65.253906 61.917969 64.359375 C 63.984375 63.558594 65.863281 62.265625 67.28125 60.570312 C 68.71875 60.679688 70.640625 59.574219 71.320312 58.441406 C 72.132812 57.066406 71.734375 55.160156 70.46875 54.34375 Z M 61.949219 67.496094 C 63.652344 72.265625 65.601562 77.695312 68.105469 81.957031 C 68.574219 82.757812 68.757812 83.507812 68.558594 83.882812 C 68.453125 84.09375 68.171875 84.226562 67.71875 84.253906 C 66.148438 84.359375 64.707031 82.71875 64.304688 82.210938 C 63.320312 80.972656 62.75 79.398438 62.1875 77.894531 L 62.054688 77.535156 C 60.945312 74.5625 60.214844 71.519531 59.867188 68.492188 C 59.839844 68.265625 59.800781 67.546875 59.773438 66.839844 C 59.730469 66.015625 59.691406 65.386719 59.667969 65 C 60.09375 64.921875 60.507812 64.8125 60.917969 64.691406 C 61.253906 65.570312 61.601562 66.519531 61.949219 67.496094 Z M 48.976562 83.414062 L 39.183594 83.132812 C 36.828125 83.066406 34.144531 82.988281 31.839844 81.800781 C 31 81.363281 30.414062 80.863281 30.039062 80.269531 C 29.53125 79.453125 29.46875 78.46875 29.878906 77.71875 C 29.984375 77.535156 30.109375 77.375 30.238281 77.242188 C 29.976562 77 29.90625 76.878906 29.707031 76.480469 C 29.359375 75.800781 29.429688 75.023438 29.890625 74.53125 C 30.507812 73.882812 31.519531 73.851562 32.425781 73.921875 C 34.613281 74.066406 36.789062 74.082031 38.890625 74.09375 C 40.679688 74.105469 42.519531 74.121094 44.375 74.214844 C 44.691406 74.5625 45 74.929688 45.308594 75.320312 C 43.132812 75.171875 40.972656 75.160156 38.882812 75.148438 C 36.757812 75.132812 34.5625 75.121094 32.347656 74.976562 C 32.210938 74.960938 32.027344 74.945312 31.828125 74.945312 C 31.773438 75.453125 31.855469 75.960938 32.066406 76.425781 C 32.425781 76.371094 32.789062 76.332031 33.132812 76.320312 C 35.46875 76.210938 37.84375 76.210938 40.132812 76.203125 C 42.027344 76.203125 43.960938 76.171875 45.878906 76.117188 C 46.109375 76.453125 46.332031 76.800781 46.546875 77.15625 C 44.398438 77.242188 42.226562 77.25 40.132812 77.25 C 37.851562 77.25 35.492188 77.265625 33.1875 77.359375 C 32.71875 77.386719 32.226562 77.425781 31.8125 77.546875 C 31.8125 78.796875 32.347656 80.171875 33.132812 81.226562 C 35.054688 81.957031 37.242188 82.027344 39.199219 82.078125 L 48.757812 82.347656 C 48.867188 82.71875 48.921875 83.066406 48.976562 83.414062 Z M 55.570312 62.585938 C 54.878906 62.585938 54.183594 62.453125 53.546875 62.1875 C 53.335938 62.09375 53.226562 61.855469 53.320312 61.640625 C 53.414062 61.425781 53.652344 61.320312 53.867188 61.410156 C 54.574219 61.710938 55.347656 61.800781 56.109375 61.71875 C 56.347656 61.695312 56.546875 61.855469 56.570312 62.09375 C 56.601562 62.320312 56.441406 62.535156 56.203125 62.558594 C 55.984375 62.574219 55.773438 62.585938 55.570312 62.585938 Z M 59.453125 58.34375 C 58.9375 58.265625 58.429688 57.988281 58.09375 57.574219 C 57.945312 57.386719 57.972656 57.117188 58.160156 56.972656 C 58.34375 56.828125 58.613281 56.855469 58.757812 57.039062 C 58.984375 57.320312 59.332031 57.503906 59.691406 57.519531 C 60.054688 57.535156 60.414062 57.402344 60.667969 57.132812 C 60.824219 56.957031 61.09375 56.957031 61.265625 57.132812 C 61.425781 57.296875 61.441406 57.558594 61.265625 57.734375 C 60.855469 58.160156 60.238281 58.398438 59.640625 58.375 C 59.585938 58.359375 59.523438 58.359375 59.453125 58.34375 Z M 51.28125 57.652344 C 51.210938 57.652344 51.148438 57.652344 51.078125 57.640625 C 50.46875 57.585938 49.867188 57.265625 49.507812 56.789062 C 49.359375 56.601562 49.398438 56.332031 49.585938 56.203125 C 49.773438 56.054688 50.039062 56.09375 50.171875 56.28125 C 50.398438 56.570312 50.773438 56.773438 51.164062 56.8125 C 51.546875 56.855469 51.957031 56.71875 52.242188 56.464844 C 52.414062 56.308594 52.679688 56.332031 52.84375 56.507812 C 53 56.679688 52.972656 56.949219 52.796875 57.105469 C 52.386719 57.453125 51.828125 57.652344 51.28125 57.652344 Z M 51.28125 57.652344 "/>
<path style=" stroke:none;fill-rule:nonzero;fill:rgb(64.705882%,76.470588%,87.843137%);fill-opacity:1;" d="M 70.132812 85.132812 C 70.292969 84.960938 70.585938 85.078125 70.585938 85.320312 C 70.546875 86.757812 69.746094 87.882812 69.226562 88.46875 C 67.375 90.617188 63.210938 90.515625 60.640625 89.09375 C 60.371094 88.945312 60.015625 89.039062 59.867188 89.398438 C 59.730469 91.363281 58.304688 93.171875 56.441406 93.773438 C 54.679688 94.34375 52.625 93.8125 51.332031 92.496094 C 51.402344 92.386719 51.453125 92.28125 51.492188 92.171875 C 52.011719 91.023438 51.734375 89.652344 50.855469 88.921875 C 50.347656 88.507812 49.640625 88.335938 48.960938 88.480469 C 48.242188 88.628906 47.664062 89.105469 47.464844 89.761719 C 47.664062 90.398438 48.304688 90.371094 48.519531 89.976562 C 48.636719 89.746094 48.882812 89.585938 49.175781 89.523438 C 49.53125 89.4375 49.929688 89.53125 50.1875 89.746094 C 50.707031 90.171875 50.855469 91.039062 50.53125 91.757812 C 50.238281 92.425781 49.574219 92.988281 48.707031 93.289062 C 47.265625 93.8125 45.546875 93.535156 44.332031 92.585938 C 43.144531 91.65625 42.226562 88.265625 42.574219 87.132812 C 43.773438 86.492188 45.015625 85.414062 45.894531 84.292969 C 46.601562 84.332031 47.25 84.253906 47.945312 84.382812 C 48.757812 84.546875 51.90625 86.132812 54.015625 87.359375 C 54.46875 87.625 55.039062 87.613281 55.476562 87.347656 C 57.425781 86.148438 58.242188 85.425781 62.734375 84.144531 C 63.574219 85.109375 65.398438 86.117188 66.75 86.226562 C 68.628906 86.332031 69.640625 85.65625 70.132812 85.132812 Z M 70.132812 85.132812 "/>
<path style=" stroke:none;fill-rule:nonzero;fill:rgb(78.431373%,84.313725%,91.372549%);fill-opacity:1;" d="M 45.160156 84.105469 C 43.25 86.171875 41.585938 87.320312 39.34375 87.402344 C 38.921875 88 36.917969 88.835938 36.1875 88.746094 C 35.53125 88.667969 34.773438 87.933594 34.46875 87.320312 C 34.359375 87.105469 34.136719 86.988281 33.890625 87.027344 C 33.652344 87.066406 33.480469 87.265625 33.46875 87.503906 C 33.398438 88.25 33 88.976562 32.375 89.507812 C 31.734375 90.039062 30.945312 90.292969 30.214844 90.226562 C 29.484375 90.148438 28.746094 89.730469 28.242188 89.09375 C 27.789062 88.535156 27.546875 87.851562 27.546875 87.1875 C 27.960938 86.988281 28.320312 86.695312 28.589844 86.347656 C 29.175781 85.570312 29.238281 84.523438 28.757812 83.757812 C 28.320312 83.066406 27.402344 82.71875 26.625 82.972656 C 26.347656 83.066406 26.203125 83.359375 26.28125 83.636719 C 26.371094 83.921875 26.664062 84.066406 26.949219 83.984375 C 27.265625 83.890625 27.695312 84.039062 27.882812 84.332031 C 28.121094 84.722656 28.066406 85.292969 27.75 85.707031 C 27.441406 86.109375 26.90625 86.386719 26.28125 86.464844 C 24.8125 86.664062 23.265625 85.585938 22.90625 84.144531 C 22.535156 82.613281 23.480469 80.707031 24.828125 80.277344 C 25.054688 80.214844 25.171875 79.976562 25.121094 79.761719 C 24.613281 77.789062 24.304688 75.933594 25.894531 73.90625 C 27.171875 72.265625 29.429688 71.210938 31.609375 71.71875 C 31.90625 71.789062 32.210938 71.695312 32.425781 71.492188 C 33.507812 70.476562 34.984375 70.679688 35.933594 70.679688 C 37.347656 70.679688 38.25 71.53125 39.015625 72.203125 C 39.121094 72.296875 39.265625 72.347656 39.414062 72.335938 C 39.5625 72.320312 39.691406 72.242188 39.785156 72.117188 C 40.761719 70.824219 42.597656 70.214844 44.082031 70.695312 C 45.054688 71 45.800781 71.601562 46.226562 72.375 C 44.667969 73.171875 42.828125 73.507812 41 73.480469 C 37.921875 73.429688 34.238281 73.105469 31.1875 73.390625 C 30.320312 73.46875 29.507812 73.890625 29.039062 74.613281 C 28.359375 75.679688 28.691406 76.609375 29.160156 77.265625 C 28.453125 78.9375 29.5625 81.226562 30.734375 82.027344 C 32.359375 83.132812 34.121094 83.636719 35.761719 83.691406 C 37.988281 83.757812 42.1875 83.984375 45.160156 84.105469 Z M 45.160156 84.105469 "/>
<path style=" stroke:none;fill-rule:nonzero;fill:rgb(93.72549%,64.705882%,76.862745%);fill-opacity:1;" d="M 75.386719 8.890625 C 75.160156 10.515625 73.210938 11.53125 71.773438 11.933594 C 70.839844 12.203125 69.960938 12.15625 69 12.105469 C 68.546875 12.078125 68.09375 12.148438 67.625 12.117188 C 67.066406 12.078125 66.519531 12.039062 65.960938 11.972656 C 64.890625 11.839844 63.828125 11.640625 62.789062 11.371094 C 62.535156 11.308594 59.730469 10.453125 59.761719 10.386719 C 60.039062 9.722656 60.292969 9.039062 60.53125 8.335938 C 63.921875 9 67.558594 8.589844 70.667969 7.078125 L 71.023438 6.90625 C 72.203125 6.320312 73.414062 5.71875 74.429688 6.164062 C 75.359375 6.558594 75.53125 7.882812 75.386719 8.890625 Z M 55.746094 17.519531 C 55.492188 17.867188 55.226562 18.210938 54.960938 18.558594 C 54.976562 18.546875 56.425781 20.746094 56.546875 20.960938 C 57 21.828125 57.359375 22.75 57.625 23.707031 C 58.160156 25.625 58.289062 27.664062 58.027344 29.640625 C 57.921875 30.425781 57.546875 31.265625 57.773438 32.054688 C 58 32.828125 59.066406 33.265625 59.8125 33.160156 C 60.972656 32.972656 61.789062 31.894531 62.078125 30.917969 C 62.375 29.929688 62.347656 28.773438 61.988281 27.25 C 61.023438 23.105469 58.921875 19.851562 55.746094 17.519531 Z M 52.464844 21.371094 C 52.867188 23.171875 53.105469 25.1875 53.132812 27.1875 C 53.144531 29.054688 52.734375 30.917969 51.90625 32.597656 L 51.757812 32.882812 C 51.425781 33.535156 51.117188 34.144531 51.210938 34.730469 C 51.292969 35.1875 51.625 35.453125 51.894531 35.617188 C 52.425781 35.90625 53.105469 35.960938 53.652344 35.746094 C 54.5625 35.386719 55.292969 34.507812 55.90625 33.082031 C 57.894531 28.441406 57.15625 23.160156 54.226562 19.484375 C 53.691406 20.078125 53.105469 20.707031 52.464844 21.371094 Z M 72.773438 13.453125 C 72.054688 13.28125 71.308594 13.289062 70.492188 13.304688 L 70.121094 13.320312 C 66.09375 13.390625 62.734375 12.796875 59.304688 11.441406 C 59 12.117188 58.667969 12.789062 58.320312 13.453125 C 60.972656 14.867188 63.546875 15.878906 66.789062 16.789062 C 66.828125 16.800781 66.867188 16.800781 66.90625 16.8125 C 66.917969 16.828125 66.933594 16.828125 66.957031 16.839844 C 67.558594 17 68.171875 17.15625 68.828125 17.320312 C 70.109375 17.640625 71.570312 17.933594 72.851562 17.480469 C 73.507812 17.242188 74.105469 16.710938 74.398438 16.078125 C 74.546875 15.761719 74.679688 15.277344 74.492188 14.773438 C 74.265625 14.160156 73.628906 13.667969 72.773438 13.453125 Z M 68.199219 18.574219 C 67.71875 18.390625 67.171875 18.160156 66.585938 17.90625 C 63.226562 16.972656 60.515625 15.90625 57.773438 14.4375 C 57.347656 15.171875 56.90625 15.894531 56.425781 16.585938 C 56.464844 16.53125 58.398438 18.28125 58.558594 18.441406 C 59.226562 19.121094 59.828125 19.867188 60.371094 20.640625 C 61.078125 21.664062 61.53125 22.828125 62.132812 23.90625 C 63.691406 26.679688 67.867188 29.761719 71.015625 27.414062 C 72.921875 25.984375 72.960938 22.945312 71.789062 21.117188 C 70.824219 19.613281 69.773438 19.199219 68.199219 18.574219 Z M 68.199219 18.574219 "/>
<path style=" stroke:none;fill-rule:nonzero;fill:rgb(61.568627%,75.294118%,52.54902%);fill-opacity:1;" d="M 62.132812 81.546875 L 61.71875 83.082031 C 59.960938 83.707031 57 84.8125 55.253906 86 C 54.890625 86.253906 54.429688 86.265625 54.039062 86.0625 C 52.757812 85.386719 51.480469 84.773438 50.199219 84.066406 C 49.851562 80.746094 47.828125 76.878906 45.53125 74.382812 C 45.386719 74.226562 45.4375 73.960938 45.640625 73.867188 C 47.796875 72.867188 49.730469 71.519531 51.226562 69.8125 C 53.507812 71.0625 56.0625 71.75 58.667969 71.800781 C 58.976562 73.210938 59.398438 74.484375 59.839844 76 C 60.308594 77.625 61.0625 79.890625 62.132812 81.546875 Z M 51.441406 8.265625 C 50.277344 8.613281 49.265625 9.304688 48.597656 10.570312 C 47.640625 12.414062 47.84375 14.730469 48.960938 16.453125 C 49.46875 17.226562 50.132812 17.882812 50.617188 18.667969 C 50.878906 19.105469 51.09375 19.613281 51.171875 20.121094 C 51.226562 20.507812 51.695312 20.65625 51.972656 20.371094 C 55.371094 16.855469 57.933594 12.75 59.492188 7.972656 C 59.613281 7.585938 59.238281 7.242188 58.867188 7.402344 C 57.585938 7.921875 55.546875 8.121094 54.761719 8.042969 C 53.613281 7.933594 52.464844 7.960938 51.441406 8.265625 Z M 38.066406 35.371094 C 38.390625 37.210938 37.894531 39.175781 36.75 40.640625 C 35.148438 42.695312 32.480469 43.652344 29.890625 43.851562 C 27.304688 44.054688 24.707031 43.589844 22.117188 43.304688 C 19.53125 43.027344 16.933594 43.574219 14.507812 44.507812 C 13.210938 38.984375 14.199219 32.960938 17.171875 28.132812 C 18.546875 25.917969 20.359375 23.90625 22.679688 22.734375 C 25 21.558594 27.882812 21.292969 30.214844 22.441406 C 31.585938 23.105469 32.695312 24.304688 33.289062 25.707031 C 33.691406 26.65625 33.757812 27.453125 33.679688 28.453125 C 27.640625 30.1875 22.078125 33.398438 18.289062 38.289062 C 18.121094 38.519531 18.429688 38.796875 18.628906 38.597656 C 22.90625 34.492188 28.320312 31.609375 34.09375 30.09375 C 34.34375 30.398438 34.691406 30.667969 35.148438 30.933594 C 35.65625 31.242188 36.117188 31.710938 36.507812 32.15625 C 37.320312 33.066406 37.867188 34.199219 38.066406 35.371094 Z M 47.296875 14.523438 C 42.296875 17.15625 36.757812 23.867188 35.773438 30.109375 C 35.238281 29.785156 35.171875 29.839844 34.828125 29.304688 C 34.585938 28.945312 34.628906 28.144531 34.890625 27.320312 C 36.828125 21.480469 40.308594 18.09375 41.28125 17.039062 C 43.304688 14.851562 45.625 13.335938 47.386719 12.386719 C 47.25 13.144531 47.210938 13.867188 47.296875 14.523438 Z M 34.984375 69.546875 C 33.027344 61.585938 32.132812 53.050781 32.375 44.890625 C 33.082031 44.691406 33.1875 44.707031 33.828125 44.34375 C 33.359375 53 34.214844 61.28125 36.347656 69.640625 C 35.90625 69.5625 35.4375 69.523438 34.984375 69.546875 Z M 34.984375 69.546875 "/>
<path style=" stroke:none;fill-rule:nonzero;fill:rgb(90.588235%,88.627451%,90.588235%);fill-opacity:1;" d="M 82.078125 64.640625 C 81.570312 65.4375 80.824219 66.0625 80.054688 66.625 C 76.558594 69.183594 71.8125 70.960938 67.546875 71.71875 L 66.332031 72.09375 C 65.308594 69.8125 64.507812 67.425781 63.828125 65.039062 C 65.320312 64.105469 66.640625 62.933594 67.75 61.570312 C 71 60.625 74.4375 60.078125 77.703125 59.945312 C 78.628906 59.90625 79.5625 59.90625 80.4375 60.1875 C 81.320312 60.46875 82.132812 61.0625 82.464844 61.917969 C 82.8125 62.796875 82.585938 63.828125 82.078125 64.640625 Z M 76.464844 78.066406 C 74.730469 75.1875 72.09375 73.628906 69.027344 72.414062 C 68.171875 72.574219 67.304688 72.734375 66.53125 72.921875 C 67.148438 75.308594 67.988281 77.480469 69.082031 79.601562 C 70.839844 80.53125 72.84375 80.972656 74.921875 80.945312 C 75.625 80.933594 76.453125 80.800781 76.8125 80.1875 C 77.210938 79.53125 76.867188 78.71875 76.464844 78.066406 Z M 76.464844 78.066406 "/>
<path style=" stroke:none;fill-rule:nonzero;fill:rgb(95.686275%,79.607843%,39.215686%);fill-opacity:1;" d="M 83 38.945312 C 83.535156 40.277344 84.601562 41.386719 85.800781 41.988281 C 86.148438 42.15625 86.109375 42.652344 85.746094 42.789062 C 84.5625 43.226562 83.546875 44.039062 82.933594 45.226562 C 82.757812 45.570312 82.25 45.53125 82.132812 45.160156 C 81.679688 43.835938 80.734375 42.921875 79.53125 42.480469 C 79.175781 42.347656 79.121094 41.855469 79.453125 41.679688 C 80.546875 41.117188 81.585938 40.148438 82.171875 38.921875 C 82.347656 38.558594 82.851562 38.574219 83 38.945312 Z M 73.066406 32.945312 C 72.574219 34.28125 71.441406 35.320312 70.292969 35.785156 C 70.09375 35.863281 70.109375 36.148438 70.320312 36.203125 C 71.601562 36.546875 72.625 37.496094 72.972656 38.945312 C 73.027344 39.160156 73.320312 39.183594 73.398438 38.984375 C 73.9375 37.695312 74.984375 36.855469 76.242188 36.480469 C 76.464844 36.410156 76.464844 36.109375 76.253906 36.023438 C 75.023438 35.515625 73.90625 34.359375 73.492188 32.972656 C 73.429688 32.75 73.144531 32.734375 73.066406 32.945312 Z M 43.796875 62.933594 C 43.390625 63.921875 42.558594 64.691406 41.695312 65.109375 C 41.492188 65.199219 41.519531 65.492188 41.734375 65.5625 C 42.695312 65.863281 43.46875 66.609375 43.757812 67.703125 C 43.8125 67.90625 44.09375 67.921875 44.175781 67.734375 C 44.613281 66.734375 45.4375 66.0625 46.410156 65.761719 C 46.625 65.695312 46.625 65.414062 46.425781 65.320312 C 45.46875 64.90625 44.601562 64.015625 44.238281 62.933594 C 44.175781 62.71875 43.882812 62.734375 43.796875 62.933594 Z M 38.835938 57.558594 C 38.429688 58.519531 37.625 59.28125 36.789062 59.667969 C 36.585938 59.761719 36.601562 60.070312 36.8125 60.132812 C 37.757812 60.4375 38.519531 61.171875 38.8125 62.242188 C 38.867188 62.441406 39.144531 62.464844 39.238281 62.265625 C 39.679688 61.292969 40.476562 60.640625 41.441406 60.332031 C 41.65625 60.269531 41.664062 59.976562 41.453125 59.878906 C 40.515625 59.46875 39.679688 58.597656 39.304688 57.546875 C 39.226562 57.347656 38.9375 57.347656 38.835938 57.558594 Z M 58.519531 71.09375 C 58.453125 70.734375 58.398438 70.359375 58.34375 69.960938 C 56.585938 69.785156 54.652344 69.253906 52.359375 68.304688 C 52.148438 68.636719 51.917969 68.960938 51.664062 69.265625 C 53.789062 70.398438 56.132812 71.023438 58.519531 71.09375 Z M 44.46875 52.503906 C 43.9375 55.109375 44.652344 58.132812 46.226562 60.320312 C 46.371094 60.515625 46.132812 60.761719 45.933594 60.625 C 44.984375 59.960938 44.121094 59.175781 43.589844 58.414062 C 40.878906 54.601562 40.4375 48.628906 42.558594 44.640625 C 44.199219 41.558594 48.210938 38.171875 51.8125 39.945312 C 50.746094 41.664062 50.1875 43.707031 50.238281 45.855469 C 49.238281 47.945312 47.320312 50.507812 45.148438 51.601562 C 44.785156 51.773438 44.546875 52.117188 44.46875 52.503906 Z M 73.757812 47.851562 C 71.8125 46.441406 70.347656 44.484375 68.667969 42.757812 C 66.8125 40.855469 64.628906 39.214844 62.105469 38.34375 C 59.492188 37.441406 56.078125 37.242188 53.613281 38.773438 C 51.441406 40.132812 50.734375 43.835938 50.863281 46.1875 C 53.121094 52.386719 59.960938 55.121094 66.078125 55.695312 C 66.402344 54.28125 68.050781 53.304688 69.484375 53.507812 C 70.773438 53.679688 71.933594 54.800781 72.15625 56.132812 C 72.425781 57.789062 71.894531 59.09375 70.53125 60.109375 C 70.425781 60.1875 70.507812 60.359375 70.640625 60.332031 C 72.296875 59.945312 74.492188 59.382812 75.984375 59.429688 C 78.160156 57.171875 79.921875 53.613281 80.398438 50.371094 C 80.476562 49.785156 79.976562 49.28125 79.382812 49.382812 C 77.480469 49.761719 75.386719 49.027344 73.757812 47.851562 Z M 73.757812 47.851562 "/>
</g>
</svg>
